 <svg version="1.0" xmlns="http://www.w3.org/2000/svg" width="700.000000pt" height="761.000000pt" viewBox="0 0 700.000000 761.000000" preserveAspectRatio="xMidYMid meet">
<metadata>
Created by potrace 1.12, written by Peter Selinger 2001-2015
</metadata>
<g transform="translate(0.000000,761.000000) scale(0.100000,-0.100000)" fill="#000000" stroke="none">
<path d="M3448 7553 c-110 -165 -187 -358 -214 -538 -11 -75 -4 -207 15 -288
22 -95 58 -180 72 -171 5 3 6 -1 3 -9 -5 -15 2 -29 109 -219 114 -201 144
-260 182 -353 147 -363 138 -730 -29 -1224 -20 -58 -34 -106 -32 -108 2 -2 23
20 48 49 172 204 290 439 345 688 22 102 21 336 -2 445 -44 212 -124 381 -312
667 -40 60 -89 143 -109 184 -20 42 -46 85 -58 96 -11 12 -15 17 -7 13 10 -5
12 -3 8 11 -36 120 -40 156 -40 329 0 169 8 255 42 423 4 23 7 42 6 42 -1 0
-14 -17 -27 -37z"></path>
<path d="M3015 6790 c-86 -150 -120 -272 -112 -405 7 -116 27 -165 131 -323
233 -350 270 -561 176 -987 l-9 -40 44 50 c24 28 44 53 45 57 0 4 15 31 33 60
106 167 146 391 103 573 -22 90 -85 221 -151 311 -153 207 -204 290 -220 364
-4 19 -10 112 -14 205 l-6 170 -20 -35z"></path>
<path d="M4380 5150 c72 -24 290 -92 304 -95 6 -1 24 -7 39 -14 16 -6 32 -9
37 -6 5 3 10 1 12 -4 4 -12 249 -124 271 -123 9 0 15 -3 12 -9 -4 -5 1 -9 9
-9 9 0 16 -5 16 -10 0 -6 11 -15 23 -19 39 -15 223 -158 262 -204 121 -140
128 -280 19 -405 l-31 -36 -6 47 c-13 90 -80 194 -179 273 -66 54 -159 110
-193 116 -11 1 -29 11 -39 21 -11 9 -25 17 -32 17 -6 0 -36 11 -65 24 -62 27
-157 51 -166 42 -4 -3 8 -11 26 -17 135 -47 305 -153 403 -252 113 -112 147
-205 113 -306 -17 -53 -58 -101 -105 -126 -28 -14 -29 -14 -53 28 -123 206
-501 370 -1042 452 -217 33 -347 40 -705 39 -330 -1 -414 -9 -690 -64 -323
-65 -505 -142 -677 -287 -28 -23 -54 -43 -57 -43 -15 0 -23 72 -13 112 35 142
205 284 472 394 201 83 381 129 730 189 321 55 319 53 65 54 -268 1 -460 -11
-601 -39 -352 -69 -641 -201 -774 -353 -49 -57 -97 -140 -116 -205 -14 -49
-25 -49 -57 -2 -16 24 -22 47 -22 84 1 251 321 485 965 706 131 44 133 43 -45
24 -231 -25 -515 -105 -699 -198 -238 -120 -374 -268 -413 -449 -18 -85 6
-580 37 -772 3 -16 7 -41 9 -55 2 -14 16 -96 32 -183 23 -132 25 -160 14 -167
-8 -5 -43 -14 -79 -20 -88 -15 -234 -55 -356 -97 -238 -83 -494 -245 -685
-435 -204 -203 -321 -425 -345 -654 -8 -76 15 -216 49 -301 77 -188 247 -378
471 -525 145 -95 274 -168 298 -168 8 0 17 -4 19 -8 9 -24 334 -154 554 -221
229 -70 644 -159 869 -185 22 -2 94 -11 160 -20 127 -16 179 -21 315 -31 47
-4 103 -8 125 -10 22 -2 149 -6 283 -11 178 -5 242 -10 242 -19 0 -7 14 -38
31 -71 117 -219 325 -385 599 -476 83 -28 214 -53 229 -44 5 4 12 2 16 -4 9
-15 311 -12 430 4 284 39 586 138 803 263 152 87 352 263 472 413 117 147 236
351 290 498 7 17 15 32 19 32 4 0 51 26 106 57 108 61 249 162 333 239 69 62
160 183 199 264 59 124 68 163 68 310 0 123 -3 142 -29 214 -61 171 -200 352
-368 483 -56 43 -69 65 -47 78 14 10 91 130 127 201 109 214 148 412 123 620
-11 89 -52 237 -71 257 -4 5 -15 0 -25 -9 -14 -14 -16 -27 -9 -73 10 -70 11
-311 2 -311 -4 0 -12 -26 -18 -57 -37 -176 -144 -381 -277 -531 -122 -137
-316 -259 -503 -318 l-83 -26 -81 25 c-96 31 -204 53 -303 63 -40 3 -73 9 -73
11 0 3 7 17 15 31 8 15 21 44 28 65 l13 38 169 3 c183 3 258 18 399 81 307
136 546 458 572 772 5 55 3 73 -6 73 -9 0 -10 3 -1 13 21 26 -22 153 -76 224
-110 144 -417 162 -559 31 -78 -72 -104 -180 -83 -343 11 -88 10 -97 -6 -115
-42 -46 -103 -11 -147 85 -20 44 -23 65 -23 175 0 178 26 255 109 328 44 39
79 57 159 84 53 18 87 21 229 22 92 1 160 5 153 9 -56 31 -294 67 -350 53
l-28 -7 24 -27 24 -27 -31 28 c-25 23 -36 26 -65 21 -42 -8 -147 -59 -175 -85
-11 -10 -24 -19 -28 -19 -4 0 -5 50 -3 110 5 127 -2 169 -44 258 -62 129 -196
245 -398 344 -127 62 -309 127 -416 148 -33 6 -68 14 -77 16 -13 4 -18 0 -18
-13 0 -15 -2 -14 -16 5 -12 17 -19 20 -29 12 -7 -6 -16 -7 -19 -2 -7 11 -89
29 -196 42 -117 14 -134 12 -70 -10z m-315 -774 c208 -21 530 -89 667 -140 95
-36 188 -83 241 -121 38 -28 47 -41 47 -65 0 -20 -8 -34 -23 -45 -46 -30 -343
-121 -487 -149 -512 -101 -980 -124 -1500 -75 -136 12 -425 59 -505 82 -27 7
-97 26 -155 42 -148 39 -188 84 -142 160 21 34 172 117 290 159 126 45 405
103 602 126 307 36 331 38 625 34 165 -2 318 -6 340 -8z m2237 -402 c22 -14
52 -45 67 -70 27 -42 29 -50 28 -154 0 -61 -4 -110 -8 -110 -3 0 -19 -34 -34
-76 -15 -41 -50 -110 -78 -152 -52 -81 -168 -203 -234 -246 l-39 -26 -115 46
c-63 25 -161 61 -219 81 -58 19 -109 39 -113 43 -7 6 29 237 39 249 2 2 26
-17 54 -42 31 -28 65 -49 86 -53 88 -16 169 27 204 109 21 47 22 57 11 113
-42 231 34 333 238 318 55 -5 85 -12 113 -30z m-4675 -66 c22 -18 67 -49 100
-69 l59 -37 23 -168 c68 -503 208 -938 411 -1274 35 -58 66 -107 70 -110 3 -3
28 -36 55 -75 63 -89 249 -276 338 -339 38 -27 105 -71 149 -97 91 -55 89 -61
-7 -24 -245 92 -529 306 -703 530 -85 109 -229 357 -283 487 -145 347 -243
745 -284 1161 -6 66 -6 68 13 58 10 -5 37 -25 59 -43z m4011 -825 c68 -22 109
-40 103 -46 -5 -5 -69 -12 -142 -15 l-132 -5 7 24 c3 13 9 36 12 52 4 16 13
27 23 27 9 0 67 -16 129 -37z m-4088 12 c0 -9 18 -70 41 -136 22 -66 39 -122
37 -124 -2 -1 -23 -13 -48 -25 -200 -101 -387 -252 -471 -380 -20 -30 -49 -86
-64 -125 -24 -58 -28 -84 -28 -155 2 -232 149 -416 466 -584 84 -45 237 -109
244 -102 2 1 -21 16 -49 31 -165 89 -354 228 -433 318 -60 69 -111 168 -125
244 -29 162 71 335 275 478 69 48 269 155 290 155 8 0 115 -196 115 -213 0 -3
-21 -18 -47 -33 -27 -15 -51 -32 -55 -38 -4 -6 -8 -7 -8 -3 0 13 -112 -77
-163 -132 -30 -32 -47 -58 -43 -67 3 -8 1 -12 -4 -9 -5 3 -19 -14 -31 -37 -17
-33 -22 -61 -23 -123 -1 -99 25 -154 110 -235 32 -30 47 -42 34 -25 -14 16
-29 33 -35 37 -5 4 -10 13 -10 20 -1 7 -7 12 -14 10 -7 -1 -10 1 -7 6 3 5 -4
32 -14 61 -44 114 -18 194 97 309 40 40 75 72 78 72 3 0 48 21 101 46 52 26
96 45 98 43 36 -49 116 -169 116 -176 0 -4 -18 -28 -39 -51 -60 -66 -76 -106
-76 -187 0 -78 26 -147 58 -153 18 -4 18 -2 1 30 -42 79 -12 186 71 254 l46
37 27 -24 c14 -13 33 -32 40 -41 7 -10 20 -18 28 -18 8 0 13 -4 10 -9 -13 -21
197 -206 305 -270 255 -150 459 -224 736 -266 57 -8 125 -15 151 -15 27 0 51
-2 54 -5 3 -3 -5 -31 -18 -63 -12 -31 -33 -104 -45 -162 -27 -131 -30 -347 -5
-453 9 -38 16 -73 16 -78 0 -7 -20 -8 -52 -5 -29 3 -96 8 -148 11 -109 7 -510
50 -585 64 -27 5 -72 13 -100 17 -27 4 -52 8 -55 9 -3 0 -27 4 -55 9 -55 8
-227 41 -290 56 -22 5 -101 24 -175 41 -199 45 -506 139 -635 194 -514 218
-768 391 -923 627 -78 120 -131 322 -108 414 7 26 10 21 39 -56 30 -78 91
-192 120 -223 7 -6 32 -36 56 -65 48 -58 155 -149 248 -211 67 -44 342 -185
349 -178 3 2 -26 20 -64 40 -111 59 -282 185 -362 268 -91 94 -160 206 -201
325 -28 82 -30 98 -27 200 3 110 4 112 50 206 48 97 152 236 203 273 15 11 35
27 44 36 36 36 174 122 252 158 46 21 128 53 182 72 64 22 96 38 92 47 -5 14
7 16 20 3 6 -6 36 -4 80 6 87 19 203 40 233 42 14 1 22 -5 22 -14z m4929 -418
c117 -91 210 -281 211 -429 0 -112 -60 -273 -141 -378 -49 -64 -160 -180 -171
-180 -4 0 -8 23 -8 51 0 74 -28 243 -52 319 -43 134 -135 282 -234 377 -24 23
-44 44 -44 47 0 2 33 21 73 42 39 20 84 45 99 55 14 11 29 19 33 19 4 0 41 27
82 60 42 33 81 60 87 60 6 -1 35 -20 65 -43z m-1043 -127 c34 0 217 -40 227
-50 5 -4 -19 -10 -52 -14 -86 -10 -226 -48 -296 -81 -139 -65 -266 -166 -331
-262 -21 -32 -45 -64 -51 -71 -15 -16 -17 -38 -3 -47 6 -4 5 -13 -2 -25 -9
-14 -16 -16 -25 -8 -15 12 -13 18 -103 -247 -89 -259 -118 -329 -182 -432 -55
-87 -158 -180 -251 -226 -124 -62 -358 -122 -570 -148 -51 -6 -101 -15 -112
-21 -16 -8 -18 -8 -8 3 10 10 5 17 -25 33 -50 28 -100 126 -110 216 -31 278
127 585 445 865 175 154 398 287 641 382 63 25 122 46 131 49 9 2 59 15 111
29 131 35 267 57 380 59 52 1 106 7 120 13 19 8 27 7 33 -3 4 -8 19 -14 33
-14z m388 -137 c106 -38 208 -171 237 -310 14 -69 6 -202 -17 -288 -21 -80
-71 -186 -127 -272 -26 -39 -48 -77 -49 -84 -2 -8 -8 -16 -14 -19 -6 -3 -44
-43 -85 -89 -178 -201 -454 -390 -744 -509 -289 -118 -504 -159 -783 -149
-217 8 -349 46 -486 139 -51 34 -76 68 -40 53 11 -4 105 -9 209 -12 209 -5
337 8 462 48 212 69 365 208 478 437 31 64 119 305 129 356 3 12 16 59 30 105
49 160 112 267 217 366 95 90 157 131 287 191 103 48 125 54 182 54 37 0 86
-8 114 -17z m-4156 -94 c-3 -8 -7 -3 -11 10 -4 17 -3 21 5 13 5 -5 8 -16 6
-23z m5173 -89 c17 -49 22 -89 23 -160 1 -189 -78 -352 -261 -533 -98 -99
-303 -255 -303 -231 0 3 7 31 16 62 10 32 24 102 33 157 l17 100 59 44 c128
96 247 233 309 358 33 65 64 193 66 268 0 31 16 6 41 -65z m-642 -578 c-3 -48
-12 -106 -19 -127 -13 -39 -103 -203 -141 -257 -11 -15 -17 -34 -13 -45 4 -12
3 -14 -3 -6 -7 9 -23 -6 -59 -55 -268 -366 -710 -610 -1269 -701 -253 -41
-391 -47 -590 -26 -28 3 -21 0 20 -10 111 -26 292 -37 437 -25 290 23 486 65
753 160 179 64 436 225 575 359 40 39 75 69 77 67 9 -8 -126 -191 -197 -267
-142 -153 -595 -335 -1000 -403 -85 -14 -202 -28 -260 -32 -58 -4 -112 -11
-120 -16 -20 -12 378 -2 485 12 76 10 310 55 348 66 9 3 17 1 17 -3 0 -10
-258 -93 -360 -117 -169 -39 -258 -50 -430 -50 -163 -1 -295 14 -368 41 -15 6
-16 5 -2 -13 12 -15 10 -15 -10 3 -14 12 -45 29 -70 39 -145 57 -256 142 -378
288 -29 35 -102 172 -102 191 0 8 -5 15 -11 15 -5 0 -8 4 -4 9 3 5 1 12 -5 16
-5 3 -10 27 -10 52 l0 46 29 -36 c15 -20 31 -34 35 -30 3 3 6 -1 6 -10 0 -21
119 -109 205 -151 168 -82 310 -110 550 -110 179 0 281 14 465 60 295 75 629
241 876 435 76 59 304 284 304 299 0 5 12 22 28 39 51 58 138 208 172 295 19
47 36 86 39 86 4 0 4 -40 0 -88z m-5364 -112 c3 -6 -1 -7 -9 -4 -18 7 -21 14
-7 14 6 0 13 -4 16 -10z"></path>
<path d="M1941 1783 c0 -5 14 -19 32 -32 l32 -25 -29 32 c-31 33 -36 37 -35
25z"></path>
<path d="M4038 443 c7 -3 16 -2 19 1 4 3 -2 6 -13 5 -11 0 -14 -3 -6 -6z"></path>
<path d="M6621 4098 c7 -16 16 -28 21 -28 5 0 7 -4 4 -9 -4 -5 -2 -20 3 -33 6
-12 10 -17 10 -9 1 20 30 -18 30 -39 0 -11 -4 -10 -16 5 -15 20 -15 19 -9 -5
3 -14 6 -28 6 -32 0 -4 9 0 20 9 19 17 19 17 -6 63 -14 25 -36 59 -50 75 l-24
30 11 -27z"></path>
</g>
</svg>